<svg id="Layer_1" data-name="Layer 1" xmlns="http://www.w3.org/2000/svg" viewBox="0 0 545.64 184.89"><defs><style>.cls-1{fill:#f15d30;}</style></defs><title>Artboard 1</title><path class="cls-1" d="M217.72,63.21V77.79H208.9V25.23h8.82V54l9.4-10.21h11.52L224.35,58.69l17.35,19.1H230.55Z"/><path class="cls-1" d="M275.38,63.72h-26c.58,4.52,4.37,7.29,9.4,7.29,3.43,0,6.93-1.46,8.53-4.37,2.11,1.17,4.59,2.48,6.78,3.64-3.06,5.83-9.62,8.24-15.89,8.24-9.7,0-17.64-7.14-17.64-17.86S248.55,43,258.25,43s17.28,6.93,17.28,17.64C275.53,61.54,275.45,62.92,275.38,63.72Zm-8.53-6.05c-.66-4.67-4.16-7.22-8.53-7.22-4.67,0-8.31,2.62-9,7.22Z"/><path class="cls-1" d="M313.87,63.72h-26c.58,4.52,4.37,7.29,9.4,7.29,3.43,0,6.93-1.46,8.53-4.37,2.11,1.17,4.59,2.48,6.78,3.64-3.06,5.83-9.62,8.24-15.89,8.24-9.7,0-17.64-7.14-17.64-17.86S287,43,296.74,43,314,49.94,314,60.66C314,61.54,313.94,62.92,313.87,63.72Zm-8.53-6.05c-.66-4.67-4.16-7.22-8.53-7.22-4.67,0-8.31,2.62-9,7.22Z"/><path class="cls-1" d="M328.59,48.34C330.41,45,334.79,43,339.23,43c8.89,0,16.62,7,16.62,17.71s-7.73,17.79-16.62,17.79c-4.45,0-8.82-1.82-10.64-5.25V94.34H319.7V43.75h8.89Zm9.19,21.72a8.83,8.83,0,0,0,9-9.18,9,9,0,1,0-18,0A8.8,8.8,0,0,0,337.77,70.07Z"/><path class="cls-1" d="M404,73.42c-2.19,3.5-7.22,5-10.57,5a17.24,17.24,0,0,1-17.35-17.71A17.19,17.19,0,0,1,393.46,43c3.06,0,8.09,1.17,10.57,5V43.75h8.89v34H404Zm-9.33-3.5c4.81,0,9.33-3.35,9.33-9.19s-4.67-9.18-9.33-9.18a9.19,9.19,0,1,0,0,18.37Z"/><path class="cls-1" d="M225.08,113.83a17.57,17.57,0,0,1,14.14,6.63l-7.07,5.32a8.71,8.71,0,0,0-7.07-3.35c-5,0-9.55,3.5-9.55,9a9.39,9.39,0,0,0,9.55,9.33,8.77,8.77,0,0,0,7.07-3.43l7.14,5.25a17.68,17.68,0,0,1-14.22,6.71c-9.77,0-18.37-7.14-18.37-17.86S215.31,113.83,225.08,113.83Z"/><path class="cls-1" d="M253.87,148.6H245V96h8.89v23.77c1.6-4.16,7.22-6,10.57-6,8.82,0,13.71,5.83,13.71,15.82v19h-8.89V130.09A7.18,7.18,0,0,0,262,122.5c-3.72,0-8.16,2-8.16,7.95Z"/><path class="cls-1" d="M311.75,144.23c-2.19,3.5-7.22,5-10.57,5a17.72,17.72,0,0,1,0-35.43c3.06,0,8.09,1.17,10.57,5v-4.23h8.89v34h-8.89Zm-9.33-3.5c4.81,0,9.33-3.35,9.33-9.19s-4.67-9.18-9.33-9.18a9.19,9.19,0,1,0,0,18.37Z"/><path class="cls-1" d="M337.77,148.6h-8.89v-34h8.89v5c1.9-3.64,6.2-5.76,10.13-5.76,7.95,0,12.68,5,12.68,14.65V148.6H351.7V130.09c0-5-2.62-7.58-6.49-7.58s-7.44,2-7.44,7.95Z"/><path class="cls-1" d="M383.84,157.5c8.6,0,10.86-6.42,10.35-13.56-1.75,3.43-6.42,5.39-10.86,5.39-8.89,0-17.06-6.93-17.06-17.64,0-10.94,8.17-17.86,17.06-17.86,4.45,0,9,1.9,10.86,5.32v-4.59h8.68v29.16c0,15.16-7.22,21.87-19,21.87a17.81,17.81,0,0,1-16.26-10.06c2-.95,5.25-2.7,7.22-3.64C376.26,155.24,380.27,157.5,383.84,157.5Zm.87-35.14a9.26,9.26,0,0,0,0,18.52,9.23,9.23,0,0,0,9.26-9.33C394,125.64,389.6,122.36,384.72,122.36Z"/><path class="cls-1" d="M443.76,134.53h-26c.58,4.52,4.37,7.29,9.4,7.29,3.43,0,6.93-1.46,8.53-4.37,2.11,1.17,4.59,2.48,6.78,3.64-3.06,5.83-9.62,8.24-15.89,8.24-9.7,0-17.64-7.14-17.64-17.86s7.95-17.64,17.64-17.64,17.28,6.93,17.28,17.64C443.91,132.35,443.83,133.73,443.76,134.53Zm-8.53-6.05c-.66-4.67-4.16-7.22-8.53-7.22-4.67,0-8.31,2.62-9,7.22Z"/><path class="cls-1" d="M449.59,96h8.89V148.6h-8.89Z"/><path class="cls-1" d="M464.6,131.47c0-10.72,8-17.64,17.71-17.64S500,120.75,500,131.47s-8.09,17.79-17.71,17.79S464.6,142.19,464.6,131.47Zm26.61,0a8.89,8.89,0,0,0-17.79,0,8.9,8.9,0,1,0,17.79,0Z"/><path class="cls-1" d="M521.61,157.5c8.6,0,10.86-6.42,10.35-13.56-1.75,3.43-6.42,5.39-10.86,5.39-8.89,0-17.06-6.93-17.06-17.64,0-10.94,8.17-17.86,17.06-17.86,4.45,0,9,1.9,10.86,5.32v-4.59h8.68v29.16c0,15.16-7.22,21.87-19,21.87a17.81,17.81,0,0,1-16.26-10.06c2-.95,5.25-2.7,7.22-3.64C514,155.24,518,157.5,521.61,157.5Zm.87-35.14a9.26,9.26,0,0,0,0,18.52,9.23,9.23,0,0,0,9.26-9.33C531.74,125.64,527.37,122.36,522.48,122.36Z"/><path class="cls-1" d="M62.09,6.5c-15.39,3.08-27.7,10.71-36.6,22.67C14.11,44.48,7.71,63.39,5.36,88.69c-.92,10,.06,20.05,1.34,31.18a73.74,73.74,0,0,0,15.86,38.56c6.9,8.56,14.82,14.18,24.2,17.19a88.55,88.55,0,0,0,24.67,4.25,45.42,45.42,0,0,0,5.88-.25l3.08-.31c4.24-.43,8.49-.86,12.73-1.37a158.36,158.36,0,0,0,54.68-16.7c14.84-7.75,25.22-19.18,30.84-34,2.62-6.88,3.87-12.67,3.87-18.08a33.91,33.91,0,0,0-.47-5.64c-3-17.59-9.14-32.75-18.9-46.33-12.09-16.83-24.32-28.68-38.48-37.31C103.11,6.76,82.64,2.38,62.09,6.5Zm29.73,8.13c20.19,4.42,38,14.81,52.92,30.87,16.92,18.2,26.56,37.31,29.49,58.42.53,3.91-.09,8.24-.71,12-2.87,17.21-12.3,30.05-28,38.16a155.31,155.31,0,0,1-53,16.14c-4.13.49-8.28.91-13,1.39l-.65.07a50.59,50.59,0,0,1-12.26-.23h0c-5.11-.72-10.89-1.55-16.45-2.87-13.07-3.11-22.7-12-29.42-27.06-5.06-11.37-7.68-24-8-38.7a132.53,132.53,0,0,1,8.5-50.28C25.83,40.4,32.46,27,46.85,19.86,61,12.82,75.74,11.11,91.83,14.63Z"/><path class="cls-1" d="M39.83,44.82C28.74,60.48,23,78.7,22.74,99a74.87,74.87,0,0,0,5.94,32.45c8,19,22.58,30.06,42.21,32,20.68,2,41-2.82,60.49-14.33a60.07,60.07,0,0,0,20.5-19.41,52.54,52.54,0,0,0,8.64-28.54c0-16-7.51-33.07-22.55-50.76a47.36,47.36,0,0,0-5.21-5.23c-23-19.78-44.72-25.81-66.87-18.4C54.05,30.67,45.78,36.43,39.83,44.82ZM148.43,121a50.36,50.36,0,0,1-21.5,22.1c-16.67,9.11-31.92,13.14-47.77,12.67H79c-11.47.45-21.38-2.36-30.31-8.6-5.18-3.61-9.18-8.89-12.24-16.15A80.91,80.91,0,0,1,30,99.42a93.56,93.56,0,0,1,7.57-35.9,89.91,89.91,0,0,1,6.47-12l1.2-2C50.2,41.33,58,37.4,68.19,34c16-5.27,31.72-2.55,49.55,8.56C130.93,50.82,141.12,63,148,78.87,154.56,93.81,154.69,108,148.43,121Z"/><path class="cls-1" d="M104.8,48c-17.06-7.52-32.45-5.88-45.72,4.88C48.76,61.24,42.58,73,39.63,89.81a53.56,53.56,0,0,0,5,34.12c7.85,15.19,20.7,23,37.17,22.56h.06c21.88-1.15,37.79-9.24,48.62-24.76a41.46,41.46,0,0,0,7.84-24,43,43,0,0,0-1.79-12.12C131.2,67.6,120.54,54.95,104.8,48ZM81.6,138.55h-.29c-7.43.59-14.75-1.67-21.77-6.73A27.13,27.13,0,0,1,50,119.1a56.51,56.51,0,0,1-3.8-20.17,62.68,62.68,0,0,1,5.52-25c5-11.51,12.75-18.51,23.78-21.4,9.07-2.36,18.1-1.45,27.59,2.8,13.78,6.16,22.73,17.25,26.62,33s-2,31.1-15.28,40.11C103.49,135.83,92.75,139.14,81.6,138.55Z"/><path class="cls-1" d="M83.47,105.25v14.12H74.93V68.46h8.54V96.28l9.11-9.89h11.16L89.9,100.87l16.81,18.5H95.9Z"/></svg>